<svg width="701" height="701" viewBox="0 0 701 701" fill="none" xmlns="http://www.w3.org/2000/svg">
<circle cx="350.5" cy="350.5" r="350.5" fill="#001B32"/>
<path fill-rule="evenodd" clip-rule="evenodd" d="M509.177 663.109C507.035 650.436 505.964 636.05 505.964 619.95C505.964 607.85 504.028 597.444 500.156 588.732C496.284 580.02 490.96 573.002 484.184 567.678C477.408 561.87 469.422 557.756 460.226 555.336C451.03 552.432 441.108 550.98 430.46 550.98H348.422C338.258 550.98 329.546 548.076 322.286 542.268C315.51 535.976 312.122 527.506 312.122 516.858C312.122 506.694 315.51 498.95 322.286 493.626C329.546 487.818 338.258 484.914 348.422 484.914H450.062C461.194 484.43 471.842 480.316 482.006 472.572C492.654 464.344 501.124 453.212 507.416 439.176C509.319 435.234 510.955 431.12 512.323 426.834H346.97C336.322 426.834 327.368 423.446 320.108 416.67C313.332 409.41 309.944 400.456 309.944 389.808C309.944 379.16 313.332 370.69 320.108 364.398C327.368 357.622 336.322 354.234 346.97 354.234H510.375C506.967 346.708 502.351 339.932 496.526 333.906C482.974 318.902 466.76 311.4 447.884 311.4H346.97C336.322 311.4 327.368 308.012 320.108 301.236C313.332 293.976 309.944 285.022 309.944 274.374C309.944 264.21 313.332 255.74 320.108 248.964C327.368 242.188 336.322 238.8 346.97 238.8H614.864C625.028 238.8 633.74 242.43 641 249.69C648.26 256.466 651.89 265.178 651.89 275.826C651.89 285.99 648.26 294.46 641 301.236C633.74 308.012 625.028 311.4 614.864 311.4H552.008C562.396 319.302 571.248 328.74 578.564 339.714C581.675 344.38 584.369 349.22 586.647 354.234H614.864C625.028 354.234 633.74 357.864 641 365.124C648.26 371.9 651.89 380.37 651.89 390.534C651.89 400.698 648.26 409.41 641 416.67C633.74 423.446 625.028 426.834 614.864 426.834H592.299C590.395 433.898 587.752 440.916 584.372 447.888C577.112 463.376 567.432 477.412 555.332 489.996C544.892 500.854 533.371 509.909 520.769 517.164C527.556 521.517 533.995 526.739 540.086 532.83C550.734 542.994 559.446 554.61 566.222 567.678C572.998 580.746 576.87 595.024 577.838 610.512C578.044 612.645 578.246 614.729 578.442 616.765C557.374 634.818 534.137 650.414 509.177 663.109Z" fill="#DBFCD1"/>
</svg>
