<svg width="699" height="701" viewBox="0 0 699 701" fill="none" xmlns="http://www.w3.org/2000/svg">
<path d="M699 349.5C699 542.523 542.523 699 349.5 699C156.476 699 0 542.523 0 349.5C0 156.476 156.476 0 349.5 0C542.523 0 699 156.476 699 349.5Z" fill="#DBFCD1"/>
<path d="M631.506 135.264V138.75H581.576C532.28 138.75 531.379 173.745 531.379 209.023V275.75H640.25L624.964 412.75H531.379V657.318C491.189 680.236 446.011 695.409 397.876 700.807V412.75H297.75V275.75H397.876V196.982C397.876 106.564 440.58 51.8687 511.059 38.9658C558.059 61.8047 599.172 94.868 631.506 135.264Z" fill="#001B32"/>
</svg>
