<svg width="699" height="700" viewBox="0 0 699 700" fill="none" xmlns="http://www.w3.org/2000/svg">
<g clip-path="url(#clip0_28_246)">
<path d="M699 349.5C699 542.523 542.523 699 349.5 699C156.476 699 0 542.523 0 349.5C0 156.476 156.476 0 349.5 0C542.523 0 699 156.476 699 349.5Z" fill="#DBFCD1"/>
<path d="M262.258 688.765C257.556 685.234 252.949 681.228 248.348 676.626C234.644 662.921 226.214 649.174 219.916 632.963C213.821 617.283 209.654 599.363 208.457 573.125C207.457 551.213 207.093 541.732 207 500.436V442.539C207.093 401.243 207.457 391.761 208.457 369.85C209.654 343.611 213.821 325.691 219.916 310.011C226.214 293.801 234.644 280.053 248.348 266.348C262.053 252.644 275.801 244.214 292.011 237.916C307.691 231.821 325.611 227.654 351.85 226.457C373.761 225.457 383.243 225.093 424.539 225H482.436C523.732 225.093 533.213 225.457 555.125 226.457C581.363 227.654 599.283 231.821 614.963 237.916C631.174 244.214 644.921 252.644 658.626 266.348C672.331 280.053 680.76 293.801 687.06 310.011C693.153 325.691 697.321 343.611 698.517 369.85C698.657 372.912 698.785 375.731 698.9 378.429C694.82 430.031 679.533 478.48 655.471 521.34C655.555 509.401 655.584 493.769 655.584 471.488C655.584 405.665 655.333 397.868 654.147 371.874C653.051 347.84 649.035 334.787 645.659 326.1C641.187 314.594 635.845 306.382 627.218 297.756C618.592 289.129 610.381 283.787 598.874 279.316C590.188 275.94 577.135 271.924 553.1 270.828C529.705 269.76 521.05 269.45 471.57 269.398H435.406C385.924 269.45 377.269 269.76 353.874 270.828C329.84 271.924 316.787 275.94 308.1 279.316C296.594 283.787 288.382 289.129 279.756 297.756C271.129 306.382 265.787 314.594 261.316 326.1C257.94 334.787 253.924 347.84 252.828 371.874C251.76 395.269 251.45 403.924 251.398 453.406V489.57C251.45 539.05 251.76 547.705 252.828 571.1C253.924 595.135 257.94 608.188 261.316 616.874C265.787 628.381 271.13 636.592 279.756 645.218C288.382 653.845 296.594 659.187 308.1 663.659C316.787 667.035 329.84 671.051 353.874 672.147C379.865 673.333 387.66 673.584 453.488 673.584C465.459 673.584 475.511 673.576 484.103 673.555C442.943 690.596 397.82 700 350.5 700C320.017 700 290.446 696.098 262.258 688.765Z" fill="#001B32"/>
<path fill-rule="evenodd" clip-rule="evenodd" d="M576.744 471.488C576.744 403.414 521.561 348.23 453.488 348.23C385.414 348.23 330.23 403.414 330.23 471.488C330.23 539.561 385.414 594.744 453.488 594.744C521.561 594.744 576.744 539.561 576.744 471.488ZM373.478 471.488C373.478 427.299 409.299 391.478 453.488 391.478C497.675 391.478 533.496 427.299 533.496 471.488C533.496 515.675 497.675 551.496 453.488 551.496C409.299 551.496 373.478 515.675 373.478 471.488Z" fill="#001B32"/>
<path d="M617.83 337.959C617.83 320.941 604.033 307.145 587.015 307.145C569.998 307.145 556.201 320.941 556.201 337.959C556.201 354.978 569.998 368.773 587.015 368.773C604.033 368.773 617.83 354.978 617.83 337.959Z" fill="#001B32"/>
</g>
<defs>
<clipPath id="clip0_28_246">
<rect width="699" height="700" fill="white"/>
</clipPath>
</defs>
</svg>
