<svg width="1080" height="256" viewBox="0 0 1080 256" fill="none" xmlns="http://www.w3.org/2000/svg">
<g clip-path="url(#clip0_20_35)">
<path d="M424.539 34.3465C428.787 34.3465 432.44 35.7907 435.499 38.6792C438.727 41.3978 440.341 44.8809 440.341 49.1287C440.341 51.3375 439.831 53.6313 438.812 56.01L375.86 203.322C374.331 206.72 372.122 209.269 369.234 210.968C366.515 212.497 363.712 213.262 360.823 213.262C358.105 213.092 355.471 212.242 352.922 210.713C350.374 209.014 348.42 206.635 347.061 203.577L284.109 55.7551C283.599 54.7357 283.259 53.7162 283.089 52.6968C282.92 51.5074 282.835 50.403 282.835 49.3835C282.835 44.4561 284.619 40.7181 288.187 38.1695C291.755 35.4509 295.153 34.0916 298.381 34.0916C304.838 34.0916 309.51 37.4049 312.399 44.0314L368.214 175.287L359.294 175.542L410.522 44.0314C413.41 37.5748 418.083 34.3465 424.539 34.3465Z" fill="#DBFCD1"/>
<path d="M493.285 197.715C493.285 202.132 491.841 205.87 488.953 208.929C486.064 211.817 482.411 213.262 477.993 213.262C473.576 213.262 469.923 211.817 467.034 208.929C464.146 205.87 462.701 202.132 462.701 197.715V92.4557C462.701 88.038 464.146 84.385 467.034 81.4965C469.923 78.4381 473.576 76.9089 477.993 76.9089C482.411 76.9089 486.064 78.4381 488.953 81.4965C491.841 84.385 493.285 88.038 493.285 92.4557V197.715ZM477.738 256.393C471.962 256.393 467.884 255.458 465.505 253.589C463.126 251.72 461.937 248.407 461.937 243.649V238.807C461.937 233.879 463.211 230.566 465.76 228.867C468.478 226.998 472.556 226.064 477.993 226.064C483.94 226.064 488.103 226.998 490.482 228.867C492.86 230.736 494.05 234.049 494.05 238.807V243.649C494.05 248.577 492.775 251.975 490.227 253.844C487.678 255.543 483.515 256.393 477.738 256.393Z" fill="#DBFCD1"/>
<path d="M516.816 192.108C515.117 189.729 514.353 186.671 514.523 182.933C514.693 179.195 516.901 175.966 521.149 173.248C523.868 171.549 526.756 170.869 529.814 171.209C532.873 171.379 535.846 172.908 538.735 175.796C543.662 180.724 548.844 184.547 554.282 187.265C559.719 189.984 566.515 191.343 574.671 191.343C577.219 191.173 580.023 190.833 583.081 190.324C586.14 189.644 588.773 188.285 590.982 186.246C593.361 184.037 594.55 180.724 594.55 176.306C594.55 172.568 593.276 169.595 590.727 167.386C588.179 165.177 584.78 163.308 580.533 161.779C576.455 160.25 571.867 158.805 566.77 157.446C561.503 155.917 556.066 154.218 550.459 152.349C545.021 150.48 540.009 148.101 535.422 145.213C530.834 142.154 527.096 138.161 524.207 133.234C521.319 128.307 519.875 122.105 519.875 114.629C519.875 106.133 522.254 98.9123 527.011 92.9654C531.768 87.0186 537.885 82.431 545.361 79.2027C553.007 75.9744 560.993 74.3603 569.319 74.3603C574.586 74.3603 580.108 75.0399 585.885 76.3992C591.662 77.5886 597.184 79.6275 602.451 82.5159C607.718 85.2345 612.136 88.8876 615.704 93.4751C617.573 96.0238 618.677 99.0822 619.017 102.65C619.357 106.218 617.743 109.447 614.175 112.335C611.626 114.374 608.653 115.309 605.254 115.139C601.856 114.799 599.053 113.609 596.844 111.571C593.955 107.833 590.048 104.859 585.12 102.65C580.363 100.441 574.841 99.337 568.554 99.337C566.005 99.337 563.202 99.6768 560.143 100.356C557.255 100.866 554.706 102.141 552.497 104.179C550.289 106.048 549.184 109.107 549.184 113.355C549.184 117.263 550.459 120.406 553.007 122.785C555.556 124.993 558.954 126.862 563.202 128.392C567.619 129.751 572.292 131.11 577.219 132.469C582.317 133.829 587.499 135.443 592.766 137.312C598.033 139.181 602.876 141.645 607.293 144.703C611.711 147.761 615.279 151.754 617.998 156.682C620.716 161.439 622.076 167.556 622.076 175.032C622.076 183.697 619.527 191.088 614.43 197.205C609.332 203.322 602.961 207.994 595.315 211.223C587.669 214.281 579.853 215.81 571.867 215.81C561.842 215.81 551.818 214.111 541.793 210.713C531.768 207.145 523.443 200.943 516.816 192.108Z" fill="#DBFCD1"/>
<path d="M680.802 197.715C680.802 202.132 679.273 205.87 676.214 208.929C673.326 211.817 669.673 213.262 665.255 213.262C661.007 213.262 657.439 211.817 654.551 208.929C651.662 205.87 650.218 202.132 650.218 197.715V40.2084C650.218 35.7907 651.662 32.1377 654.551 29.2492C657.609 26.1908 661.347 24.6617 665.765 24.6617C670.183 24.6617 673.751 26.1908 676.469 29.2492C679.358 32.1377 680.802 35.7907 680.802 40.2084V197.715Z" fill="#DBFCD1"/>
<path d="M745.163 197.715C745.163 202.132 743.719 205.87 740.831 208.929C737.942 211.817 734.289 213.262 729.871 213.262C725.454 213.262 721.801 211.817 718.912 208.929C716.024 205.87 714.58 202.132 714.58 197.715V92.4557C714.58 88.038 716.024 84.385 718.912 81.4965C721.801 78.4381 725.454 76.9089 729.871 76.9089C734.289 76.9089 737.942 78.4381 740.831 81.4965C743.719 84.385 745.163 88.038 745.163 92.4557V197.715ZM729.617 60.3427C723.84 60.3427 719.762 59.4082 717.383 57.5392C715.004 55.6702 713.815 52.3569 713.815 47.5995V42.757C713.815 37.8297 715.089 34.5164 717.638 32.8173C720.356 30.9483 724.434 30.0138 729.871 30.0138C735.818 30.0138 739.981 30.9483 742.36 32.8173C744.738 34.6863 745.928 37.9996 745.928 42.757V47.5995C745.928 52.5269 744.654 55.9251 742.105 57.7941C739.556 59.4932 735.393 60.3427 729.617 60.3427Z" fill="#DBFCD1"/>
<path d="M863.504 185.226C867.582 185.226 870.98 186.586 873.699 189.304C876.417 191.853 877.777 195.166 877.777 199.244C877.777 203.152 876.417 206.465 873.699 209.184C870.98 211.902 867.582 213.262 863.504 213.262H781.438C777.19 213.262 773.792 211.732 771.243 208.674C768.694 205.616 767.505 202.557 767.675 199.499C767.845 196.95 768.185 194.741 768.694 192.872C769.204 190.833 770.479 188.54 772.517 185.991L835.979 103.925L835.469 107.493H783.731C779.654 107.493 776.255 106.133 773.537 103.415C770.818 100.696 769.459 97.2981 769.459 93.2203C769.459 89.3123 770.818 86.0841 773.537 83.5354C776.255 80.8168 779.654 79.4576 783.731 79.4576H862.23C866.138 79.4576 869.451 80.9018 872.17 83.7903C874.888 86.6787 876.077 90.3318 875.738 94.7495C875.568 96.4486 875.228 98.1477 874.718 99.8468C874.378 101.546 873.274 103.585 871.405 105.964L808.963 186.756V185.226H863.504Z" fill="#579C8A"/>
<path d="M961.782 215.81C947.34 215.81 934.767 212.837 924.062 206.89C913.528 200.773 905.372 192.533 899.595 182.168C893.988 171.804 891.185 160.08 891.185 146.997C891.185 131.705 894.243 118.707 900.36 108.002C906.647 97.1282 914.802 88.8026 924.827 83.0257C934.852 77.2487 945.471 74.3603 956.685 74.3603C965.35 74.3603 973.506 76.1443 981.152 79.7124C988.968 83.2805 995.849 88.2079 1001.8 94.4946C1007.74 100.611 1012.42 107.748 1015.81 115.903C1019.38 124.059 1021.17 132.724 1021.17 141.899C1021 145.977 1019.38 149.291 1016.32 151.839C1013.27 154.388 1009.7 155.662 1005.62 155.662H908.261L900.615 130.176H994.15L988.543 135.273V128.392C988.203 123.464 986.419 119.047 983.191 115.139C980.133 111.231 976.225 108.172 971.467 105.964C966.88 103.585 961.952 102.395 956.685 102.395C951.588 102.395 946.83 103.075 942.413 104.434C937.995 105.794 934.172 108.087 930.944 111.316C927.715 114.544 925.167 118.877 923.298 124.314C921.429 129.751 920.494 136.632 920.494 144.958C920.494 154.133 922.363 161.949 926.101 168.405C930.009 174.692 934.937 179.534 940.883 182.933C947 186.161 953.457 187.775 960.253 187.775C966.54 187.775 971.552 187.265 975.29 186.246C979.028 185.226 982.002 184.037 984.21 182.678C986.589 181.149 988.713 179.874 990.582 178.855C993.64 177.326 996.529 176.561 999.248 176.561C1002.99 176.561 1006.04 177.835 1008.42 180.384C1010.97 182.933 1012.25 185.906 1012.25 189.304C1012.25 193.892 1009.87 198.055 1005.11 201.793C1000.69 205.531 994.49 208.844 986.504 211.732C978.519 214.451 970.278 215.81 961.782 215.81Z" fill="#DBFCD1"/>
<path d="M1061.39 213.007C1056.47 213.007 1052.64 211.732 1049.93 209.184C1047.38 206.465 1046.1 202.642 1046.1 197.715V193.382C1046.1 188.455 1047.38 184.717 1049.93 182.168C1052.64 179.45 1056.47 178.09 1061.39 178.09H1064.71C1069.64 178.09 1073.37 179.45 1075.92 182.168C1078.64 184.717 1080 188.455 1080 193.382V197.715C1080 202.642 1078.64 206.465 1075.92 209.184C1073.37 211.732 1069.64 213.007 1064.71 213.007H1061.39Z" fill="#DBFCD1"/>
<path d="M465.505 253.589C467.884 255.458 471.962 256.393 477.738 256.393C483.515 256.393 487.678 255.543 490.227 253.844C492.775 251.975 494.05 248.577 494.05 243.649V238.807C494.05 234.049 492.86 230.736 490.482 228.867C488.103 226.998 483.94 226.064 477.993 226.064C472.556 226.064 468.478 226.998 465.76 228.867C463.211 230.566 461.937 233.879 461.937 238.807V243.649C461.937 248.407 463.126 251.72 465.505 253.589Z" fill="#579C8A"/>
<path d="M717.383 57.5392C719.762 59.4082 723.84 60.3427 729.617 60.3427C735.393 60.3427 739.556 59.4932 742.105 57.7941C744.654 55.9251 745.928 52.5269 745.928 47.5995V42.757C745.928 37.9996 744.738 34.6863 742.36 32.8173C739.981 30.9483 735.818 30.0138 729.871 30.0138C724.434 30.0138 720.356 30.9483 717.638 32.8173C715.089 34.5164 713.815 37.8297 713.815 42.757V47.5995C713.815 52.3569 715.004 55.6702 717.383 57.5392Z" fill="#579C8A"/>
<path d="M1061.39 213.007C1056.47 213.007 1052.64 211.732 1049.93 209.184C1047.38 206.465 1046.1 202.642 1046.1 197.715V193.382C1046.1 188.455 1047.38 184.717 1049.93 182.168C1052.64 179.45 1056.47 178.09 1061.39 178.09H1064.71C1069.64 178.09 1073.37 179.45 1075.92 182.168C1078.64 184.717 1080 188.455 1080 193.382V197.715C1080 202.642 1078.64 206.465 1075.92 209.184C1073.37 211.732 1069.64 213.007 1064.71 213.007H1061.39Z" fill="#579C8A"/>
<path d="M1 73.5336C1 47.5339 22.0769 26.4569 48.0766 26.4569H183.926C209.926 26.4569 231.003 47.5339 231.003 73.5336V209.383C231.003 235.383 209.926 256.46 183.926 256.46H48.0766C22.0769 256.46 1 235.383 1 209.383V73.5336Z" fill="#DBFCD1"/>
<path d="M25.2108 97.7444C25.2108 71.7447 46.2878 50.6678 72.2875 50.6678H159.716C185.715 50.6678 206.792 71.7447 206.792 97.7444V185.172C206.792 211.172 185.715 232.249 159.716 232.249H72.2875C46.2878 232.249 25.2108 211.172 25.2108 185.172V97.7444Z" fill="#092B50"/>
<g filter="url(#filter0_d_20_35)">
<path d="M58.8356 180.042C58.8356 177.497 59.4968 175.152 60.8192 173.009C62.0093 170.865 63.8607 169.258 66.3732 168.186L133.022 138.646L135.006 143.067L66.5716 112.924C61.282 110.647 58.7695 107.096 59.0339 102.274C59.0339 98.9244 60.0918 96.2451 62.2077 94.2355C64.1913 92.092 66.7038 91.0203 69.7454 91.0203C70.671 91.0203 71.6628 91.2212 72.7208 91.6231C73.7787 91.8911 74.7705 92.226 75.6962 92.6279L157.42 130.206C162.181 132.349 164.694 135.766 164.958 140.455C165.355 143 164.892 145.478 163.57 147.89C162.247 150.167 160.197 151.909 157.42 153.115L75.6962 190.492C75.035 190.76 74.1754 191.095 73.1175 191.496C72.0596 191.764 70.8033 191.898 69.3486 191.898C66.9683 191.898 64.6541 190.827 62.406 188.683C60.0257 186.54 58.8356 183.659 58.8356 180.042Z" fill="#579C8A"/>
<path d="M64.9564 141.292C64.9564 145.846 64.2291 149.062 62.7745 150.937C61.3199 152.813 58.7412 153.751 55.0385 153.751H51.2696C47.4347 153.751 44.856 152.746 43.5336 150.736C42.0789 148.593 41.3516 145.378 41.3516 141.091C41.3516 136.402 42.0789 133.119 43.5336 131.244C44.9882 129.368 47.5669 128.431 51.2696 128.431H55.0385C58.8734 128.431 61.5182 129.435 62.9729 131.445C64.2952 133.454 64.9564 136.737 64.9564 141.292Z" fill="#DBFCD1"/>
</g>
<g filter="url(#filter1_d_20_35)">
<path d="M173.168 102.876C173.168 105.421 172.507 107.765 171.185 109.909C169.995 112.052 168.143 113.66 165.631 114.732L98.9819 144.272L96.9983 139.851L165.432 169.994C170.722 172.271 173.235 175.821 172.97 180.644C172.97 183.993 171.912 186.673 169.796 188.682C167.813 190.826 165.3 191.898 162.259 191.898C161.333 191.898 160.341 191.697 159.283 191.295C158.225 191.027 157.234 190.692 156.308 190.29L74.5836 152.712C69.823 150.568 67.3105 147.152 67.046 142.463C66.6493 139.918 67.1121 137.439 68.4345 135.028C69.7569 132.751 71.8066 131.009 74.5836 129.803L156.308 92.4261C156.969 92.1582 157.829 91.8233 158.887 91.4214C159.945 91.1534 161.201 91.0195 162.655 91.0195C165.036 91.0195 167.35 92.0912 169.598 94.2347C171.978 96.3782 173.168 99.2585 173.168 102.876Z" fill="#579C8A"/>
<path d="M167.048 141.626C167.048 137.071 167.775 133.856 169.23 131.981C170.684 130.105 173.263 129.167 176.966 129.167L180.734 129.167C184.569 129.167 187.148 130.172 188.47 132.182C189.925 134.325 190.652 137.54 190.652 141.827C190.652 146.516 189.925 149.798 188.47 151.674C187.016 153.55 184.437 154.487 180.734 154.487L176.966 154.487C173.131 154.487 170.486 153.483 169.031 151.473C167.709 149.463 167.048 146.181 167.048 141.626Z" fill="#DBFCD1"/>
</g>
</g>
<defs>
<filter id="filter0_d_20_35" x="37.3516" y="91.0203" width="131.744" height="108.878" filterUnits="userSpaceOnUse" color-interpolation-filters="sRGB">
<feFlood flood-opacity="0" result="BackgroundImageFix"/>
<feColorMatrix in="SourceAlpha" type="matrix" values="0 0 0 0 0 0 0 0 0 0 0 0 0 0 0 0 0 0 127 0" result="hardAlpha"/>
<feOffset dy="4"/>
<feGaussianBlur stdDeviation="2"/>
<feComposite in2="hardAlpha" operator="out"/>
<feColorMatrix type="matrix" values="0 0 0 0 0 0 0 0 0 0 0 0 0 0 0 0 0 0 0.25 0"/>
<feBlend mode="normal" in2="BackgroundImageFix" result="effect1_dropShadow_20_35"/>
<feBlend mode="normal" in="SourceGraphic" in2="effect1_dropShadow_20_35" result="shape"/>
</filter>
<filter id="filter1_d_20_35" x="62.9087" y="91.0195" width="131.744" height="108.878" filterUnits="userSpaceOnUse" color-interpolation-filters="sRGB">
<feFlood flood-opacity="0" result="BackgroundImageFix"/>
<feColorMatrix in="SourceAlpha" type="matrix" values="0 0 0 0 0 0 0 0 0 0 0 0 0 0 0 0 0 0 127 0" result="hardAlpha"/>
<feOffset dy="4"/>
<feGaussianBlur stdDeviation="2"/>
<feComposite in2="hardAlpha" operator="out"/>
<feColorMatrix type="matrix" values="0 0 0 0 0 0 0 0 0 0 0 0 0 0 0 0 0 0 0.25 0"/>
<feBlend mode="normal" in2="BackgroundImageFix" result="effect1_dropShadow_20_35"/>
<feBlend mode="normal" in="SourceGraphic" in2="effect1_dropShadow_20_35" result="shape"/>
</filter>
<clipPath id="clip0_20_35">
<rect width="1080" height="256" fill="white"/>
</clipPath>
</defs>
</svg>
