<svg width="1080" height="1080" viewBox="0 0 1080 1080" fill="none" xmlns="http://www.w3.org/2000/svg">
<rect width="1080" height="1080" fill="#232733"/>
<path d="M710.947 453.47L708.572 447.431H693.702L691.378 453.47H682.084L697.006 418.372H705.371L720.241 453.47H710.947ZM696.541 440.153H705.732L701.137 428.334L696.541 440.153Z" fill="#B2E73F"/>
<path d="M728.59 424.514C725.853 424.514 723.684 422.501 723.684 419.817C723.684 417.082 725.853 415.069 728.59 415.069C731.274 415.069 733.495 417.082 733.495 419.817C733.495 422.501 731.274 424.514 728.59 424.514ZM724.459 428.437H732.823V453.47H724.459V428.437Z" fill="#B2E73F"/>
<path d="M272.978 428.695H295.966L213.26 609.634H193.706L111 428.695H133.989L203.483 581.635L272.978 428.695Z" fill="#E3E3E3"/>
<path d="M337.716 452.996C330.053 452.996 324.24 447.185 324.24 439.789C324.24 432.129 330.053 426.318 337.716 426.318C345.379 426.318 351.456 432.129 351.456 439.789C351.456 447.185 345.379 452.996 337.716 452.996ZM327.939 485.75H348.021V608.313H327.939V485.75Z" fill="#E3E3E3"/>
<path d="M402.669 569.748C406.368 586.125 419.051 594.842 441.512 594.842C460.537 594.842 473.484 587.71 473.484 575.295C473.484 564.994 465.293 558.918 453.402 556.805L425.657 552.315C405.575 548.881 389.193 539.9 389.193 519.032C389.193 496.316 409.275 482.58 438.869 482.58C464.5 482.58 489.867 492.354 492.245 521.41H473.484C471.371 506.089 458.423 498.957 438.869 498.957C420.373 498.957 409.275 506.089 409.275 517.183C409.275 526.164 415.352 532.768 431.999 535.673L456.309 539.636C474.013 542.541 492.774 550.466 492.774 573.974C492.774 598.012 471.106 611.483 440.983 611.483C409.803 611.483 387.607 598.54 383.908 569.748H402.669Z" fill="#E3E3E3"/>
<path d="M531.191 420.771H551.274V608.313H531.191V420.771Z" fill="#E3E3E3"/>
<path d="M607.888 452.996C600.226 452.996 594.412 447.185 594.412 439.789C594.412 432.129 600.226 426.318 607.888 426.318C615.551 426.318 621.629 432.129 621.629 439.789C621.629 447.185 615.551 452.996 607.888 452.996ZM598.112 485.75H618.194V608.313H598.112V485.75Z" fill="#E3E3E3"/>
<path d="M761.311 485.75V497.373L684.947 591.144H761.311V608.313H655.088V598.012L732.245 502.92H657.73V485.75H761.311Z" fill="#B2E73F"/>
<path d="M847.847 482.58C887.219 482.58 911.793 512.957 907.829 553.107H805.305C807.683 575.823 823.273 593.521 848.904 593.521C864.494 593.521 876.385 587.974 881.67 577.672H904.13C896.467 598.804 875.328 611.483 848.904 611.483C811.118 611.483 784.959 583.22 784.959 547.032C784.959 510.844 810.854 482.58 847.847 482.58ZM847.847 500.014C823.537 500.014 808.476 517.183 805.569 538.843H887.747C886.69 514.542 871.1 500.014 847.847 500.014Z" fill="#E3E3E3"/>
<path d="M941.022 610.426C933.623 610.426 927.546 604.615 927.546 596.955C927.546 589.559 933.623 584.012 941.022 584.012C948.685 584.012 954.762 589.559 954.762 596.955C954.762 604.615 948.685 610.426 941.022 610.426Z" fill="#E3E3E3"/>
<path d="M373.187 444.361C373.187 459.453 359.929 471.687 343.575 471.687C327.22 471.687 313.962 459.453 313.962 444.361C313.962 429.27 327.22 417.036 343.575 417.036C359.929 417.036 373.187 429.27 373.187 444.361Z" fill="#232733"/>
<path d="M637.425 441.325C637.425 456.417 624.167 468.651 607.812 468.651C591.458 468.651 578.199 456.417 578.199 441.325C578.199 426.234 591.458 414 607.812 414C624.167 414 637.425 426.234 637.425 441.325Z" fill="#232733"/>
<path d="M970 597.687C970 612.778 956.742 625.012 940.387 625.012C924.032 625.012 910.774 612.778 910.774 597.687C910.774 582.595 924.032 570.361 940.387 570.361C956.742 570.361 970 582.595 970 597.687Z" fill="#232733"/>
<path d="M351.927 652.337C351.927 659.883 345.808 666 338.26 666C330.711 666 324.592 659.883 324.592 652.337C324.592 644.792 330.711 638.675 338.26 638.675C345.808 638.675 351.927 644.792 351.927 652.337Z" fill="#B2E73F"/>
<path d="M622.239 439.807C622.239 447.353 616.12 453.47 608.572 453.47C601.023 453.47 594.904 447.353 594.904 439.807C594.904 432.262 601.023 426.145 608.572 426.145C616.12 426.145 622.239 432.262 622.239 439.807Z" fill="#B2E73F"/>
<path d="M954.814 597.687C954.814 605.232 948.695 611.349 941.146 611.349C933.598 611.349 927.479 605.232 927.479 597.687C927.479 590.141 933.598 584.024 941.146 584.024C948.695 584.024 954.814 590.141 954.814 597.687Z" fill="#B2E73F"/>
</svg>
