<svg width="572" height="551" viewBox="0 0 572 551" fill="none" xmlns="http://www.w3.org/2000/svg">
<path d="M296.273 0L306.314 265.473L572 275.5L306.314 285.527L296.273 551L286.233 285.527L20.5525 275.5L286.233 265.473L296.273 0Z" fill="#F3B455"/>
<path d="M296.273 164.984C296.273 226.021 246.761 275.494 185.669 275.494C246.755 275.494 296.273 324.979 296.273 386.016C296.273 324.979 345.786 275.494 406.877 275.494C345.786 275.494 296.273 226.021 296.273 164.984Z" fill="#F3B455"/>
<path d="M111.648 20.1649L115.716 127.67L223.302 131.723L115.716 135.788L111.648 243.288L107.597 135.788L0 131.723L107.597 127.67L111.648 20.1649Z" fill="#F3B455"/>
<path d="M111.648 86.9751C111.648 111.688 91.6023 131.729 66.8638 131.729C91.5964 131.729 111.648 151.765 111.648 176.483C111.648 151.765 131.705 131.729 156.444 131.729C131.711 131.723 111.648 111.688 111.648 86.9751Z" fill="#F3B455"/>
<path d="M472.981 389.109L475.864 465.032L551.836 467.901L475.864 470.77L472.981 546.694L470.115 470.77L394.137 467.901L470.115 465.032L472.981 389.109Z" fill="#F3B455"/>
<path d="M472.981 436.296C472.981 453.745 458.831 467.901 441.362 467.901C458.831 467.901 472.981 482.051 472.981 499.507C472.981 482.051 487.142 467.901 504.611 467.901C487.148 467.901 472.981 453.751 472.981 436.296Z" fill="#F3B455"/>
<path d="M394.137 327.553L395.522 364.372L432.383 365.762L395.522 367.158L394.137 403.977L392.745 367.158L355.897 365.762L392.745 364.372L394.137 327.553Z" fill="#F3B455"/>
<path d="M394.137 350.434C394.137 358.899 387.262 365.762 378.79 365.762C387.268 365.762 394.137 372.626 394.137 381.091C394.137 372.631 401 365.762 409.478 365.762C401 365.762 394.137 358.899 394.137 350.434Z" fill="#F3B455"/>
<path d="M432.383 54.5686L433.762 91.3876L470.622 92.7778L433.762 94.174L432.383 130.993L430.985 94.174L394.137 92.7778L430.985 91.3876L432.383 54.5686Z" fill="#F3B455"/>
<path d="M432.383 77.4552C432.383 85.9206 425.508 92.7778 417.03 92.7778C425.508 92.7778 432.383 99.6408 432.383 108.106C432.383 99.6408 439.245 92.7778 447.723 92.7778C439.245 92.7778 432.383 85.9206 432.383 77.4552Z" fill="#F3B455"/>
<path d="M66.8695 450.21L68.2609 487.029L105.109 488.414L68.2609 489.81L66.8695 526.629L65.4722 489.81L28.6238 488.414L65.4722 487.029L66.8695 450.21Z" fill="#F3B455"/>
<path d="M66.8694 473.091C66.8694 481.557 60.0067 488.42 51.5286 488.42C60.0067 488.42 66.8694 495.283 66.8694 503.748C66.8694 495.283 73.732 488.42 82.2101 488.42C73.732 488.414 66.8694 481.557 66.8694 473.091Z" fill="#F3B455"/>
</svg>
