<svg width="374" height="491" viewBox="0 0 374 491" fill="none" xmlns="http://www.w3.org/2000/svg">
<path d="M112.912 242.118C112.912 349.028 0 355.03 0 355.03C0 355.03 112.912 361.032 112.912 467.942C112.912 399.461 225.824 355.03 225.824 355.03C225.824 355.03 112.912 349.028 112.912 242.118Z" fill="#F3B455"/>
<path d="M275.775 490.214C275.775 429.303 340.105 425.884 340.105 425.884C340.105 425.884 275.775 422.465 275.775 361.554C275.775 422.465 211.446 425.884 211.446 425.884C211.446 425.884 275.775 429.303 275.775 490.214Z" fill="#F3B455"/>
<path d="M220.662 0C220.662 144.983 67.5378 153.124 67.5378 153.124C67.5378 153.124 220.662 161.266 220.662 306.249C220.662 161.266 373.787 153.124 373.787 153.124C373.787 153.124 220.662 144.983 220.662 0Z" fill="#F3B455"/>
</svg>
