<svg width="283" height="283" viewBox="0 0 283 283" fill="none" xmlns="http://www.w3.org/2000/svg">
<g clip-path="url(#clip0_28_249)">
<path d="M220.111 0H62.8889C28.1563 0 0 28.1563 0 62.8889V220.111C0 254.844 28.1563 283 62.8889 283H220.111C254.844 283 283 254.844 283 220.111V62.8889C283 28.1563 254.844 0 220.111 0Z" fill="#DBFCD1"/>
<path d="M125.225 139.606C125.225 130.619 132.511 123.333 141.498 123.333C150.484 123.333 157.77 130.619 157.77 139.606C157.77 148.593 150.484 155.878 141.498 155.878C132.511 155.878 125.225 148.593 125.225 139.606Z" fill="#092B50"/>
<path fill-rule="evenodd" clip-rule="evenodd" d="M69.1777 139.613C69.1777 151.47 72.2511 155.463 78.3979 163.449C90.6719 179.394 111.255 197.471 141.5 197.471C171.744 197.471 192.328 179.394 204.602 163.449C210.748 155.463 213.822 151.47 213.822 139.613C213.822 127.757 210.748 123.764 204.602 115.779C192.328 99.833 171.744 81.7556 141.5 81.7556C111.255 81.7556 90.6719 99.833 78.3979 115.779C72.2511 123.764 69.1777 127.757 69.1777 139.613ZM141.5 112.493C126.522 112.493 114.379 124.635 114.379 139.613C114.379 154.592 126.522 166.734 141.5 166.734C156.479 166.734 168.621 154.592 168.621 139.613C168.621 124.635 156.479 112.493 141.5 112.493Z" fill="#001B32"/>
</g>
<defs>
<clipPath id="clip0_28_249">
<rect width="283" height="283" fill="white"/>
</clipPath>
</defs>
</svg>
