<svg width="283" height="283" viewBox="0 0 283 283" fill="none" xmlns="http://www.w3.org/2000/svg">
<g clip-path="url(#clip0_28_253)">
<path d="M220.111 0H62.8889C28.1563 0 0 28.1563 0 62.8889V220.111C0 254.844 28.1563 283 62.8889 283H220.111C254.844 283 283 254.844 283 220.111V62.8889C283 28.1563 254.844 0 220.111 0Z" fill="#DBFCD1"/>
<path d="M134.032 104.16L137.766 96.6917L145.234 92.958L137.766 89.2237L134.032 81.7556L130.298 89.2237L122.83 92.958L130.298 96.6917L134.032 104.16ZM100.426 119.097L106.648 106.65L119.096 100.426L106.648 94.202L100.426 81.7556L94.2038 94.202L81.7556 100.426L94.2038 106.65L100.426 119.097ZM199.055 103.747L179.254 83.9448C177.797 82.4839 175.886 81.7556 173.975 81.7556C172.063 81.7556 170.152 82.4839 168.693 83.9448L83.9448 168.695C81.0274 171.612 81.0274 176.341 83.9448 179.255L103.747 199.058C105.206 200.516 107.117 201.245 109.025 201.245C110.937 201.245 112.849 200.516 114.307 199.058L199.055 114.305C201.973 111.393 201.973 106.662 199.055 103.747ZM165.643 129.239L153.762 117.358L173.972 97.147L185.853 109.029L165.643 129.239Z" fill="#092B50"/>
<path d="M106.648 106.65L100.426 119.097L94.2038 106.65L81.7556 100.426L94.2038 94.202L100.426 81.7556L106.648 94.202L119.096 100.426L106.648 106.65Z" fill="#001B32"/>
<path d="M106.648 106.65L100.426 119.097L94.2038 106.65L81.7556 100.426L94.2038 94.202L100.426 81.7556L106.648 94.202L119.096 100.426L106.648 106.65Z" fill="#001B32"/>
<path d="M137.766 96.6917L134.032 104.16L130.298 96.6917L122.83 92.958L130.298 89.2237L134.032 81.7556L137.766 89.2237L145.234 92.958L137.766 96.6917Z" fill="#001B32"/>
<path d="M192.075 172.684L185.853 185.13L179.631 172.684L167.183 166.459L179.631 160.235L185.853 147.789L192.075 160.235L204.523 166.459L192.075 172.684Z" fill="#001B32"/>
<path d="M192.075 172.684L185.853 185.13L179.631 172.684L167.183 166.459L179.631 160.235L185.853 147.789L192.075 160.235L204.523 166.459L192.075 172.684Z" fill="#001B32"/>
</g>
<defs>
<clipPath id="clip0_28_253">
<rect width="283" height="283" fill="white"/>
</clipPath>
</defs>
</svg>
