<svg width="283" height="283" viewBox="0 0 283 283" fill="none" xmlns="http://www.w3.org/2000/svg">
<g clip-path="url(#clip0_28_256)">
<path d="M220.111 0H62.8889C28.1563 0 0 28.1563 0 62.8889V220.111C0 254.844 28.1563 283 62.8889 283H220.111C254.844 283 283 254.844 283 220.111V62.8889C283 28.1563 254.844 0 220.111 0Z" fill="#DBFCD1"/>
<path d="M148.216 167.42C147.3 168.423 146.004 168.994 144.646 168.994C143.287 168.994 141.992 168.423 141.075 167.42L115.275 139.201C113.472 137.229 113.609 134.17 115.581 132.367C117.553 130.564 120.613 130.701 122.416 132.672L139.808 151.696V80.3041C139.808 77.6326 141.974 75.4667 144.646 75.4667C147.317 75.4667 149.483 77.6326 149.483 80.3041V151.696L166.876 132.672C168.679 130.701 171.739 130.564 173.711 132.367C175.683 134.17 175.819 137.229 174.017 139.201L148.216 167.42Z" fill="#001B32" stroke="#001B32"/>
<path d="M91.4311 157.711C91.4311 155.04 89.2652 152.874 86.593 152.874C83.9215 152.874 81.7556 155.04 81.7556 157.711V158.066C81.7556 166.887 81.7556 173.997 82.5071 179.589C83.2876 185.395 84.9579 190.283 88.84 194.165C92.7228 198.048 97.6112 199.718 103.417 200.499C109.009 201.25 116.119 201.25 124.94 201.25H164.349C173.17 201.25 180.28 201.25 185.873 200.499C191.678 199.718 196.566 198.048 200.449 194.165C204.332 190.283 206.001 185.395 206.782 179.589C207.533 173.997 207.533 166.887 207.533 158.066V157.711C207.533 155.04 205.368 152.874 202.696 152.874C200.024 152.874 197.858 155.04 197.858 157.711C197.858 166.97 197.848 173.427 197.193 178.3C196.557 183.033 195.393 185.539 193.607 187.324C191.822 189.109 189.316 190.273 184.583 190.91C179.711 191.565 173.253 191.575 163.995 191.575H125.294C116.036 191.575 109.578 191.565 104.706 190.91C99.9733 190.273 97.4665 189.109 95.6817 187.324C93.8963 185.539 92.7322 183.033 92.0964 178.3C91.4411 173.427 91.4311 166.97 91.4311 157.711Z" fill="#092B50" stroke="#092B50"/>
</g>
<defs>
<clipPath id="clip0_28_256">
<rect width="283" height="283" fill="white"/>
</clipPath>
</defs>
</svg>
