<svg width="1080" height="1080" viewBox="0 0 1080 1080" fill="none" xmlns="http://www.w3.org/2000/svg">
<path d="M1 221.848C1 99.877 99.877 1 221.848 1H859.152C981.123 1 1080 99.877 1080 221.848V859.152C1080 981.123 981.123 1080 859.152 1080H221.848C99.877 1080 1 981.123 1 859.152V221.848Z" fill="#DBFCD1"/>
<path d="M114.579 335.427C114.579 213.456 213.456 114.579 335.427 114.579H745.573C867.544 114.579 966.421 213.456 966.421 335.427V745.573C966.421 867.544 867.544 966.421 745.573 966.421H335.427C213.456 966.421 114.579 867.544 114.579 745.573V335.427Z" fill="#092B50"/>
<g filter="url(#filter0_d_20_34)">
<path d="M272.32 721.502C272.32 709.561 275.422 698.563 281.626 688.507C287.209 678.451 295.894 670.91 307.681 665.882L620.349 527.302L629.654 548.042L308.612 406.634C283.797 395.95 272.01 379.295 273.251 356.669C273.251 340.957 278.214 328.388 288.14 318.961C297.445 308.905 309.232 303.877 323.501 303.877C327.843 303.877 332.496 304.82 337.459 306.705C342.422 307.962 347.075 309.533 351.417 311.419L734.808 487.708C757.141 497.763 768.928 513.79 770.169 535.786C772.03 547.727 769.859 559.354 763.655 570.667C757.451 581.351 747.835 589.521 734.808 595.178L351.417 770.524C348.316 771.781 344.283 773.352 339.32 775.237C334.357 776.494 328.464 777.123 321.64 777.123C310.473 777.123 299.616 772.095 289.07 762.039C277.903 751.984 272.32 738.471 272.32 721.502Z" fill="#579C8A"/>
<path d="M301.035 539.713C301.035 561.081 297.623 576.165 290.799 584.963C283.974 593.762 271.877 598.161 254.507 598.161H236.826C218.835 598.161 206.738 593.448 200.534 584.021C193.71 573.965 190.298 558.881 190.298 538.77C190.298 516.773 193.71 501.375 200.534 492.577C207.359 483.778 219.456 479.379 236.826 479.379H254.507C272.498 479.379 284.905 484.092 291.729 493.519C297.933 502.947 301.035 518.344 301.035 539.713Z" fill="#DBFCD1"/>
</g>
<g filter="url(#filter1_d_20_34)">
<path d="M808.68 359.498C808.68 371.439 805.578 382.437 799.374 392.493C793.791 402.549 785.106 410.09 773.319 415.118L460.651 553.698L451.346 532.958L772.388 674.366C797.203 685.05 808.99 701.705 807.749 724.331C807.749 740.043 802.786 752.612 792.86 762.039C783.555 772.095 771.768 777.123 757.499 777.123C753.157 777.123 748.504 776.18 743.541 774.295C738.578 773.038 733.925 771.467 729.583 769.581L346.192 593.292C323.859 583.237 312.072 567.21 310.831 545.214C308.97 533.272 311.141 521.646 317.345 510.333C323.549 499.649 333.165 491.479 346.192 485.822L729.583 310.476C732.684 309.219 736.717 307.648 741.68 305.763C746.643 304.506 752.536 303.877 759.36 303.877C770.527 303.877 781.384 308.905 791.93 318.961C803.097 329.016 808.68 342.529 808.68 359.498Z" fill="#579C8A"/>
<path d="M779.965 541.287C779.965 519.919 783.377 504.835 790.201 496.037C797.026 487.238 809.123 482.839 826.493 482.839L844.174 482.839C862.165 482.839 874.262 487.552 880.466 496.979C887.29 507.035 890.702 522.119 890.702 542.23C890.702 564.227 887.29 579.625 880.466 588.423C873.642 597.222 861.544 601.621 844.174 601.621L826.493 601.621C808.502 601.621 796.095 596.908 789.271 587.481C783.067 578.053 779.965 562.656 779.965 541.287Z" fill="#DBFCD1"/>
</g>
<defs>
<filter id="filter0_d_20_34" x="186.298" y="303.877" width="588.515" height="481.246" filterUnits="userSpaceOnUse" color-interpolation-filters="sRGB">
<feFlood flood-opacity="0" result="BackgroundImageFix"/>
<feColorMatrix in="SourceAlpha" type="matrix" values="0 0 0 0 0 0 0 0 0 0 0 0 0 0 0 0 0 0 127 0" result="hardAlpha"/>
<feOffset dy="4"/>
<feGaussianBlur stdDeviation="2"/>
<feComposite in2="hardAlpha" operator="out"/>
<feColorMatrix type="matrix" values="0 0 0 0 0 0 0 0 0 0 0 0 0 0 0 0 0 0 0.25 0"/>
<feBlend mode="normal" in2="BackgroundImageFix" result="effect1_dropShadow_20_34"/>
<feBlend mode="normal" in="SourceGraphic" in2="effect1_dropShadow_20_34" result="shape"/>
</filter>
<filter id="filter1_d_20_34" x="306.187" y="303.877" width="588.515" height="481.246" filterUnits="userSpaceOnUse" color-interpolation-filters="sRGB">
<feFlood flood-opacity="0" result="BackgroundImageFix"/>
<feColorMatrix in="SourceAlpha" type="matrix" values="0 0 0 0 0 0 0 0 0 0 0 0 0 0 0 0 0 0 127 0" result="hardAlpha"/>
<feOffset dy="4"/>
<feGaussianBlur stdDeviation="2"/>
<feComposite in2="hardAlpha" operator="out"/>
<feColorMatrix type="matrix" values="0 0 0 0 0 0 0 0 0 0 0 0 0 0 0 0 0 0 0.25 0"/>
<feBlend mode="normal" in2="BackgroundImageFix" result="effect1_dropShadow_20_34"/>
<feBlend mode="normal" in="SourceGraphic" in2="effect1_dropShadow_20_34" result="shape"/>
</filter>
</defs>
</svg>
