<svg width="1080" height="1080" viewBox="0 0 1080 1080" fill="none" xmlns="http://www.w3.org/2000/svg">
<g clip-path="url(#clip0_11_55)">
<path d="M545.934 313L538.85 294.982H494.498L487.568 313H459.848L504.354 208.28H529.302L573.654 313H545.934ZM502.968 273.268H530.38L516.674 238.002L502.968 273.268ZM598.555 226.606C590.393 226.606 583.925 220.6 583.925 212.592C583.925 204.43 590.393 198.424 598.555 198.424C606.563 198.424 613.185 204.43 613.185 212.592C613.185 220.6 606.563 226.606 598.555 226.606ZM586.235 238.31H611.183V313H586.235V238.31Z" fill="#E3E3E3"/>
<path d="M749.712 371.584V417.52L447.996 788.14H749.712V856H330.024V815.284L634.872 439.444H340.464V371.584H749.712Z" fill="#B2E73F"/>
</g>
<defs>
<clipPath id="clip0_11_55">
<rect width="1080" height="1080" fill="white"/>
</clipPath>
</defs>
</svg>
